<?xml version="1.0" encoding="UTF-8" standalone="no"?>
<svg
   width="94.661018"
   height="16.07317"
   fill="currentColor"
   class="bi bi-thermometer-sun"
   viewBox="0 0 94.661018 16.07317"
   version="1.1"
   id="svg985"
   xml:space="preserve"
   sodipodi:docname="hydrotherm_large.svg"
   inkscape:version="1.3 (0e150ed, 2023-07-21)"
   xmlns:inkscape="http://www.inkscape.org/namespaces/inkscape"
   xmlns:sodipodi="http://sodipodi.sourceforge.net/DTD/sodipodi-0.dtd"
   xmlns="http://www.w3.org/2000/svg"
   xmlns:svg="http://www.w3.org/2000/svg"><sodipodi:namedview
     id="namedview1"
     pagecolor="#ffffff"
     bordercolor="#000000"
     borderopacity="0.25"
     inkscape:showpageshadow="2"
     inkscape:pageopacity="0.0"
     inkscape:pagecheckerboard="0"
     inkscape:deskcolor="#d1d1d1"
     inkscape:zoom="12.013184"
     inkscape:cx="49.57054"
     inkscape:cy="2.9134658"
     inkscape:window-width="1920"
     inkscape:window-height="1027"
     inkscape:window-x="1512"
     inkscape:window-y="25"
     inkscape:window-maximized="1"
     inkscape:current-layer="svg985" /><defs
     id="defs989" /><path
     id="path981"
     style="stroke-width:0.742311"
     d="M 7.963848,3.8050688e-7 C 7.0565783,3.8050688e-7 6.1497882,0.63215238 6.1497882,1.8974517 v 5.7313102 c -1.57529,1.6816827 -0.436566,4.5167591 1.8140598,4.5167591 2.250627,0 3.389345,-2.8350763 1.8140598,-4.516759 V 1.8974517 C 9.7779078,0.63215238 8.8711178,3.8050688e-7 7.963848,3.8050688e-7 Z m 0,0.75852199949312 c 0.6012853,0 1.0888743,0.51000402 1.0888743,1.13892932 V 7.9610451 L 9.1732215,8.0756253 C 10.41507,9.2372205 9.6295548,11.386999 7.963848,11.386999 c -1.6657038,0 -2.4512228,-2.1497796 -1.2093738,-3.3113737 l 0.1205,-0.1145802 V 1.8974517 c 0,-0.6289253 0.487589,-1.13892932 1.0888738,-1.13892932 z m 0,0.75852252 A 0.36290811,0.37959068 0 0 0 7.6001596,1.8974517 V 8.4147836 A 1.0887237,1.1387714 0 1 0 9.0527223,9.4895472 1.0887237,1.1387714 0 0 0 8.3253456,8.4147836 V 1.8974517 A 0.36290811,0.37959068 0 0 0 7.963848,1.5170449 Z m 3.62812,0 c -0.200428,0 -0.361498,0.170765 -0.361498,0.3804068 v 0.7585222 c 10e-7,0.5061212 0.725187,0.5061212 0.725187,0 V 1.8974517 c 0,-0.2096425 -0.163258,-0.3804079 -0.363689,-0.3804068 z M 1.7570452,2.0509895 a 0.4249204,0.44445363 0 0 0 -0.425033,0.4445718 0.4249204,0.44445363 0 0 0 0.425033,0.4422804 h 2.668509 A 0.4249204,0.44445363 0 0 0 4.8505882,2.4955613 0.4249204,0.44445363 0 0 0 4.4255542,2.0509895 Z M 14.41603,2.7407633 c -0.09286,0 -0.185477,0.035905 -0.256334,0.1099972 l -0.51486,0.5385278 c -0.342584,0.3583328 0.172274,0.8945688 0.51486,0.536236 l 0.512669,-0.536236 c 0.141673,-0.14823 0.141673,-0.3902981 0,-0.5385277 C 14.601515,2.7766676 14.50889,2.7407634 14.41603,2.7407633 Z m -2.824062,1.0541395 c -0.200428,0 -0.361498,0.1707649 -0.361498,0.3804067 0,0.209642 0.16107,0.3781153 0.361498,0.3781153 1.935505,0 1.935505,3.0386715 0,3.0386715 -0.483877,0 -0.483877,0.7585221 0,0.7585221 2.903259,0 2.903259,-4.5557156 0,-4.5557156 z M 3.5360512,3.9094831 a 0.4249204,0.44445363 0 0 0 -0.425033,0.4445718 0.4249204,0.44445363 0 0 0 0.425033,0.4445718 h 0.889503 A 0.4249204,0.44445363 0 0 0 4.8505882,4.3540549 0.4249204,0.44445363 0 0 0 4.4255542,3.9094831 Z M 14.858592,5.6923537 c -0.200429,0 -0.363689,0.1707649 -0.363689,0.380407 0,0.2096416 0.16326,0.3804067 0.363689,0.3804067 h 0.725185 c 0.483874,0 0.483874,-0.7608137 0,-0.7608137 z M 1.7570452,5.7702687 a 0.4249204,0.44445363 0 0 0 -0.425033,0.4445719 0.4249204,0.44445363 0 0 0 0.425033,0.4422803 h 2.668509 A 0.4249204,0.44445363 0 0 0 4.8505882,6.2148406 0.4249204,0.44445363 0 0 0 4.4255542,5.7702687 Z m 1.779006,1.8584936 a 0.4249204,0.44445363 0 0 0 -0.425033,0.444572 0.4249204,0.44445363 0 0 0 0.425033,0.4445717 h 0.889503 A 0.4249204,0.44445363 0 0 0 4.8505882,8.0733343 0.4249204,0.44445363 0 0 0 4.4255542,7.6287623 Z M 13.90117,8.1077086 c -0.09303,0 -0.185435,0.037942 -0.256334,0.1122886 -0.142156,0.1483161 -0.142156,0.3879201 0,0.536236 l 0.51486,0.5385278 c 0.342048,0.3455493 0.843033,-0.1807534 0.512669,-0.5385278 L 14.159696,8.2199973 C 14.088803,8.1456513 13.994191,8.1077087 13.90117,8.1077086 Z M 11.591968,9.109141 c -0.200428,0 -0.361498,0.1707654 -0.361498,0.3804066 V 10.24807 c 10e-7,0.50612 0.725187,0.50612 0.725187,0 V 9.4895476 c 0,-0.2096423 -0.163258,-0.3804077 -0.363689,-0.3804066 z M 1.7570452,9.4895476 A 0.4249204,0.44445363 0 0 0 1.3320122,9.9341199 0.4249204,0.44445363 0 0 0 1.7570452,10.3764 h 2.668509 A 0.4249204,0.44445363 0 0 0 4.8505882,9.9341199 0.4249204,0.44445363 0 0 0 4.4255542,9.4895476 Z m 1.695752,2.2801504 c -1.176151,-0.01103 -2.348477,0.383118 -3.29291297,1.125178 a 0.40215811,0.42064498 0 0 0 -0.07887,0.588943 0.40215811,0.42064498 0 0 0 0.56306,0.08479 c 0.98045597,-0.770364 2.28234097,-1.104605 3.49228497,-0.89602 0.593603,0.102338 1.191361,0.33363 1.822824,0.552278 0.632273,0.218929 1.3130834,0.42853 2.041913,0.42853 0.7288293,0 1.40964,-0.209601 2.0419138,-0.42853 0.631462,-0.218648 1.227029,-0.449944 1.820633,-0.552278 1.209944,-0.208585 2.511828,0.125656 3.492284,0.89602 a 0.40215811,0.42064498 0 0 0 0.56306,-0.08479 0.40215811,0.42064498 0 0 0 -0.07887,-0.588943 c -1.162386,-0.913307 -2.671284,-1.299137 -4.105739,-1.051847 -0.697632,0.120265 -1.334624,0.372836 -1.9455126,0.584358 -0.61008,0.211245 -1.207943,0.382698 -1.78777,0.382698 -0.579827,0 -1.1798802,-0.171453 -1.7899602,-0.382698 -0.61089,-0.211522 -1.247881,-0.464093 -1.945514,-0.584358 -0.26896,-0.04637 -0.541402,-0.07079 -0.812822,-0.07333 z m 0,2.346606 c -1.176151,-0.01047 -2.348477,0.385411 -3.29291297,1.127471 a 0.40215811,0.42064498 0 0 0 -0.07887,0.588943 0.40215811,0.42064498 0 0 0 0.56306,0.08249 C 1.6245302,15.14485 2.9264152,14.812898 4.1363592,15.021485 c 0.593603,0.102336 1.191361,0.333628 1.822824,0.552277 0.632273,0.21893 1.3130835,0.426239 2.041913,0.426239 0.7288293,0 1.40964,-0.207309 2.0419138,-0.426239 0.631462,-0.218649 1.227029,-0.449943 1.820633,-0.552277 1.209944,-0.208587 2.511828,0.123365 3.492284,0.893727 a 0.40215811,0.42064498 0 0 0 0.56306,-0.08249 0.40215811,0.42064498 0 0 0 -0.07887,-0.588943 c -1.162383,-0.913306 -2.671281,-1.301429 -4.105736,-1.054139 -0.697632,0.120265 -1.334624,0.375126 -1.9455126,0.586652 -0.61008,0.211241 -1.207943,0.382697 -1.78777,0.382697 -0.579827,0 -1.1798802,-0.171456 -1.7899602,-0.382697 -0.61089,-0.21153 -1.247881,-0.466391 -1.945514,-0.586656 -0.26896,-0.04637 -0.541402,-0.07091 -0.812822,-0.07333 z" /><g
     style="fill:currentColor"
     id="g1119"
     transform="translate(-35.928002,7.3330008)" /><text
     xml:space="preserve"
     style="font-size:15.3333px;line-height:normal;font-family:Arial;-inkscape-font-specification:Arial;text-align:center;text-decoration-color:#000000;letter-spacing:5.64px;text-anchor:middle;fill:none;stroke:#d62728;stroke-width:5.14772;stroke-linecap:round;stroke-linejoin:round;stroke-miterlimit:4.1"
     x="56.20686"
     y="11.163061"
     id="text1"><tspan
       sodipodi:role="line"
       id="tspan1"
       x="59.026855"
       y="11.163061"
       style="font-style:normal;font-variant:normal;font-weight:bold;font-stretch:normal;font-size:15.3333px;font-family:Arial;-inkscape-font-specification:'Arial Bold';letter-spacing:5.64px;fill:#000000;fill-opacity:1;stroke:none">THORR</tspan></text><text
     xml:space="preserve"
     style="font-style:normal;font-variant:normal;font-weight:normal;font-stretch:normal;font-size:4.74575px;line-height:normal;font-family:Arial;-inkscape-font-specification:Arial;text-align:start;text-decoration-color:#000000;letter-spacing:0px;text-anchor:start;fill:#000000;fill-opacity:1;stroke:none;stroke-width:5.16123;stroke-linecap:round;stroke-linejoin:round;stroke-miterlimit:4.1"
     x="17.85092"
     y="15.116617"
     id="text2"
     transform="scale(1.0026247,0.99738218)"><tspan
       sodipodi:role="line"
       x="17.85092"
       y="15.116617"
       id="tspan3"
       style="font-size:4.74575px;letter-spacing:0px;stroke-width:5.16123"
       rotate="0 0 0 0 0 0 0 0 0 0 0 0 0 0 0 0 0 0 0 0 0 0 0 0 0 0 0 0 0 0 0 0 0 0 0 0"><tspan
   dx="0"
   dy="0"
   rotate="0 0 0 0 0 0 0 0 0 0 0 0 0 0 0 0 0 0 0 0"
   id="tspan4"
   style="font-size:4.74575px;letter-spacing:0px;stroke-width:5.16123"><tspan
   style="font-weight:bold;font-size:4.74575px;letter-spacing:0px;stroke-width:5.16123"
   id="tspan5">T</tspan>hermal <tspan
   style="font-weight:bold;font-size:4.74575px;letter-spacing:0px;stroke-width:5.16123"
   id="tspan6">H</tspan>istory <tspan
   style="font-weight:bold;font-size:4.74575px;letter-spacing:0px;stroke-width:5.16123"
   id="tspan8">o</tspan>f </tspan><tspan
   style="font-weight:bold;font-size:4.74575px;letter-spacing:0px;stroke-width:5.16123"
   id="tspan7">R</tspan>egulated <tspan
   style="font-weight:bold;font-size:4.74575px;letter-spacing:0px;stroke-width:5.16123"
   id="tspan9">R</tspan>ivers</tspan></text></svg>
